<svg width="71.000000" height="63.719238" viewBox="0 0 71 63.7192" fill="none" xmlns="http://www.w3.org/2000/svg" xmlns:xlink="http://www.w3.org/1999/xlink">
	<desc>
			Created with Pixso.
	</desc>
	<defs/>
	<path id="Vector" d="M34.5913 0C29.0718 0 24.5781 4.49365 24.5781 10.0132C24.5781 15.1411 29.1396 20.1909 33.5298 24.1187C37.9194 28.0464 42.2983 30.8091 42.2983 30.8091C42.5947 30.9956 42.9722 30.9956 43.269 30.8091C43.269 30.8091 47.6475 28.0464 52.0376 24.1187C56.4272 20.1909 60.9893 15.1411 60.9893 10.0132C60.9893 4.49365 56.4956 0 50.9761 0C47.541 0 44.5854 1.79541 42.7837 4.43945C40.9819 1.79541 38.0264 0 34.5913 0ZM34.5913 1.82031C37.8481 1.82031 40.6392 3.71729 41.9639 6.46094C42.1162 6.77539 42.4346 6.9751 42.7837 6.9751C43.1328 6.9751 43.4512 6.77539 43.603 6.46094C44.9282 3.71729 47.7192 1.82031 50.9761 1.82031C55.5117 1.82031 59.1685 5.47754 59.1685 10.0132C59.1685 13.9878 55.0825 18.9507 50.8252 22.7603C46.9546 26.2231 43.4575 28.5024 42.7837 28.937C42.1094 28.5024 38.6123 26.2231 34.7422 22.7603C30.4844 18.9507 26.3984 13.9878 26.3984 10.0132C26.3984 5.47754 30.0557 1.82031 34.5913 1.82031ZM54.3721 7.27686C54.2026 7.27783 54.0483 7.37207 53.9702 7.52197C53.8926 7.67188 53.9038 7.85254 54.0005 7.9917C54.3892 8.57178 54.6172 9.26367 54.6172 10.0132C54.6172 10.5811 54.4111 11.2925 54.0146 12.0859C53.9341 12.2324 53.9399 12.4111 54.0303 12.5518C54.1206 12.6924 54.2808 12.772 54.4478 12.7593C54.6143 12.7471 54.7607 12.644 54.8286 12.4912C55.2642 11.6191 55.5273 10.792 55.5273 10.0132C55.5273 9.07861 55.2407 8.20605 54.7559 7.48291C54.6714 7.35352 54.5264 7.27588 54.3721 7.27686ZM52.5957 14.5591C52.4614 14.5645 52.3364 14.6289 52.2544 14.7349C50.3813 17.0835 47.6099 19.6616 44.7769 21.9053C44.6431 22.0044 44.5742 22.168 44.5967 22.3325C44.6196 22.4971 44.73 22.6362 44.8848 22.6958C45.04 22.7554 45.2153 22.7256 45.3418 22.6182C48.2144 20.3433 51.0244 17.7402 52.9673 15.3042C53.082 15.165 53.1045 14.9717 53.0239 14.8105C52.9434 14.6494 52.7759 14.5508 52.5957 14.5591ZM16.3643 30.0107C13.6865 30.0107 11.0581 30.5088 8.56104 31.4932L0.57666 34.6475C0.108887 34.832 -0.120605 35.3608 0.0639648 35.8286C0.248535 36.2964 0.777344 36.5264 1.24512 36.3418L9.22949 33.1875C11.5171 32.2861 13.9116 31.8311 16.3643 31.8311L16.3926 31.8311C19.2197 31.835 21.9458 32.4365 24.5142 33.6216L24.6777 33.7017L41.4697 42.3262C41.5464 42.3657 41.6152 42.4053 41.6831 42.4453C41.7153 42.4692 41.749 42.4912 41.7847 42.5107C43.5625 43.6343 44.208 45.9614 43.2422 47.8408C42.5352 49.2163 41.1426 50.0669 39.5942 50.0669C38.9385 50.0669 38.3154 49.916 37.7183 49.6099L37.7148 49.6084L29.7856 45.7041C29.6396 45.6323 29.4663 45.644 29.3311 45.7344C29.1958 45.8252 29.1191 45.981 29.1299 46.1436C29.1411 46.3057 29.2378 46.4502 29.3838 46.522L37.3042 50.4189C38.0234 50.7881 38.7969 50.9771 39.5942 50.9771C40.5986 50.9771 41.5493 50.6719 42.3535 50.1396L45.2461 51.875C45.3711 51.9502 45.5244 51.9604 45.6582 51.9033L63.8887 44.0879C63.8975 44.0845 63.9058 44.0811 63.9136 44.0771C64.3311 43.8682 64.7944 43.7603 65.2915 43.729C65.4253 43.7505 65.5615 43.7417 65.6914 43.7041C66.9683 43.7578 68.1812 44.4727 68.7974 45.7056C69.7017 47.5142 68.9775 49.687 67.1689 50.5913L45.3223 61.5146C44.8105 61.771 44.2529 61.8989 43.6938 61.8989C43.1768 61.8989 42.6621 61.7905 42.1807 61.5698L42.1792 61.5679L12.7749 48.168L0.583984 52.8564C0.114258 53.0371 -0.119629 53.564 0.0610352 54.0332C0.241699 54.5029 0.768555 54.7368 1.23828 54.5562L12.7144 50.1416L41.4219 63.2231C42.144 63.5542 42.9199 63.7192 43.6938 63.7192C44.5312 63.7192 45.3687 63.5259 46.1367 63.1416L46.1367 63.1431L67.9834 52.2197C70.6714 50.876 71.7705 47.5801 70.4263 44.8916C69.5688 43.1758 67.9189 42.105 66.1377 41.9062C66.0674 41.6899 65.9844 41.4697 65.8745 41.2505C64.8105 39.1226 62.5312 38.0732 60.2905 38.3633C59.249 36.4609 57.2324 35.3848 55.1738 35.5132C54.4658 35.5576 53.7563 35.7422 53.0845 36.0786L53.1328 36.0557L42.293 40.7012L25.4937 32.0732L25.2856 31.9717L25.2769 31.9683C22.4751 30.6753 19.48 30.0146 16.3945 30.0107L16.3926 30.0107L16.3643 30.0107ZM55.7285 37.3389C56.7402 37.4146 57.6958 37.9316 58.3491 38.7739L53.2446 40.23L57.5312 40.23L44.5791 45.7842C44.5283 44.5029 43.9985 43.2642 43.0537 42.3564L53.876 37.7178L53.8989 37.7051C54.4932 37.4077 55.1211 37.2939 55.7285 37.3389ZM61.0762 40.1943C62.376 40.1987 63.6206 40.814 64.2461 42.0645C64.3735 42.3193 64.457 42.6001 64.5234 42.9092C64.1685 42.9868 63.8262 43.1016 63.5049 43.2632L45.5146 50.9756L43.1055 49.5298C43.4785 49.1621 43.8032 48.7393 44.0513 48.2568C44.2915 47.7896 44.4292 47.2974 44.5117 46.8008L59.3481 40.4414L59.3604 40.436C59.5142 40.3599 59.7012 40.2935 59.9048 40.23L60.5181 40.23C60.7041 40.2056 60.8906 40.1938 61.0762 40.1943ZM25.9238 43.8623C25.7139 43.8687 25.5361 44.0181 25.4932 44.2236C25.4502 44.4292 25.5532 44.6377 25.7427 44.728L27.563 45.624C27.71 45.7041 27.8887 45.6968 28.0288 45.606C28.1689 45.5151 28.248 45.3545 28.2344 45.188C28.2212 45.0215 28.1177 44.8755 27.9648 44.8081L26.1445 43.9121C26.0762 43.877 26.0005 43.8599 25.9238 43.8623Z" fill="#2B7DE0" fill-opacity="1.000000" fill-rule="nonzero"/>
</svg>
