<svg width="67.703613" height="65.286133" viewBox="0 0 67.7036 65.2861" fill="none" xmlns="http://www.w3.org/2000/svg" xmlns:xlink="http://www.w3.org/1999/xlink">
	<desc>
			Created with Pixso.
	</desc>
	<defs/>
	<path id="Vector" d="M33.8521 0C33.4062 0 33.0459 0.361328 33.0459 0.806152L33.0459 3.22412L30.6279 3.22412C30.1821 3.22412 29.8218 3.58496 29.8218 4.02979C29.8218 4.4751 30.1821 4.83594 30.6279 4.83594L33.0459 4.83594L33.0459 8.51953L17.9839 22.7886C17.8232 22.9409 17.7319 23.1533 17.7319 23.374L17.7319 31.4341C17.7319 31.7559 17.9233 32.0474 18.2183 32.1738C18.5146 32.3003 18.8574 32.2407 19.0918 32.0195L21.7617 29.4897L21.7617 36.27L4.02979 36.27C3.74121 36.27 3.47412 36.4248 3.33105 36.6763L0.106934 42.3184C-0.0356445 42.5679 -0.0356445 42.8745 0.108398 43.1226C0.252441 43.3711 0.519043 43.5239 0.805664 43.5239L2.41797 43.5239L2.41797 64.48C2.41797 64.9248 2.77783 65.2861 3.22363 65.2861L22.5679 65.2861L45.1357 65.2861L64.48 65.2861C64.9258 65.2861 65.2861 64.9248 65.2861 64.48L65.2861 43.5239L66.8979 43.5239C67.1851 43.5239 67.4512 43.3711 67.5952 43.1226C67.7397 42.8745 67.7397 42.5674 67.5967 42.3184L64.373 36.6763C64.2295 36.4248 63.9624 36.27 63.6738 36.27L45.9419 36.27L45.9419 29.4897L48.6118 32.0195C48.7642 32.1641 48.9634 32.2402 49.166 32.2402C49.2739 32.2402 49.3823 32.2183 49.4854 32.1738C49.7803 32.0474 49.9717 31.7559 49.9717 31.4341L49.9717 23.374C49.9717 23.1533 49.8813 22.9409 49.7202 22.7886L34.6577 8.51953L34.6577 4.83594L37.0757 4.83594C37.5215 4.83594 37.8818 4.4751 37.8818 4.02979C37.8818 3.58496 37.5215 3.22412 37.0757 3.22412L34.6577 3.22412L34.6577 0.806152C34.6577 0.361328 34.2974 0 33.8521 0ZM33.8521 9.97607L48.3599 23.7202L48.3599 29.5605L34.4058 16.3403C34.2505 16.1929 34.0508 16.1201 33.8521 16.1201C33.6528 16.1201 33.4531 16.1929 33.2979 16.3403L19.3438 29.5605L19.3438 23.7202L33.8521 9.97607ZM33.8521 18.0356L44.3301 27.9629L44.3301 63.6743L29.0156 63.6743L29.0156 49.166C29.0156 46.499 31.1846 44.3301 33.8521 44.3301C36.519 44.3301 38.688 46.499 38.688 49.166L38.688 61.6592C38.688 61.8813 38.8682 62.062 39.0908 62.062C39.3135 62.062 39.4937 61.8813 39.4937 61.6592L39.4937 49.166C39.4937 46.0547 36.9624 43.5239 33.8521 43.5239C30.7417 43.5239 28.21 46.0547 28.21 49.166L28.21 63.6743L23.374 63.6743L23.374 27.9629L33.8521 18.0356ZM33.8521 29.0161C31.1846 29.0161 29.0156 31.1851 29.0156 33.8521C29.0156 34.9731 29.4077 36.0654 30.1211 36.9297C30.2622 37.1006 30.5186 37.125 30.6895 36.9849C30.8608 36.8428 30.8848 36.5884 30.7427 36.4165C30.1479 35.6968 29.8218 34.7861 29.8218 33.8521C29.8218 31.6299 31.6299 29.8223 33.8521 29.8223C36.0742 29.8223 37.8818 31.6299 37.8818 33.8521C37.8818 36.0742 36.0742 37.8818 33.8521 37.8818C33.2061 37.8818 32.5903 37.7349 32.0195 37.4429C31.8213 37.3428 31.5796 37.4209 31.478 37.6191C31.3765 37.8174 31.4546 38.0591 31.6528 38.1606C32.3379 38.5107 33.0781 38.688 33.8521 38.688C36.519 38.688 38.688 36.519 38.688 33.8521C38.688 31.1851 36.519 29.0161 33.8521 29.0161ZM4.49756 37.8818L21.7617 37.8818L21.7617 41.9121L2.1958 41.9121L4.49756 37.8818ZM45.9419 37.8818L63.2065 37.8818L65.5078 41.9121L45.9419 41.9121L45.9419 37.8818ZM4.02979 43.5239L21.7617 43.5239L21.7617 60.4502L19.7466 60.4502C19.5244 60.4502 19.3438 60.6309 19.3438 60.853C19.3438 61.0757 19.5244 61.2563 19.7466 61.2563L21.7617 61.2563L21.7617 63.6743L4.02979 63.6743L4.02979 61.2563L17.3286 61.2563C17.5513 61.2563 17.7319 61.0757 17.7319 60.853C17.7319 60.6309 17.5513 60.4502 17.3286 60.4502L4.02979 60.4502L4.02979 43.5239ZM45.9419 43.5239L63.6738 43.5239L63.6738 60.4502L51.1807 60.4502C50.9585 60.4502 50.7778 60.6309 50.7778 60.853C50.7778 61.0757 50.9585 61.2563 51.1807 61.2563L63.6738 61.2563L63.6738 63.6743L45.9419 63.6743L45.9419 61.2563L47.957 61.2563C48.1792 61.2563 48.3599 61.0757 48.3599 60.853C48.3599 60.6309 48.1792 60.4502 47.957 60.4502L45.9419 60.4502L45.9419 43.5239ZM10.0747 47.5542C9.85254 47.5542 9.67188 47.7349 9.67188 47.957L9.67188 56.0171C9.67188 56.2397 9.85254 56.4199 10.0747 56.4199L15.7168 56.4199C15.9395 56.4199 16.1196 56.2397 16.1196 56.0171L16.1196 47.957C16.1196 47.7349 15.9395 47.5542 15.7168 47.5542L10.0747 47.5542ZM51.9868 47.5542C51.7646 47.5542 51.584 47.7349 51.584 47.957L51.584 56.0171C51.584 56.2397 51.7646 56.4199 51.9868 56.4199L57.6289 56.4199C57.8516 56.4199 58.0317 56.2397 58.0317 56.0171L58.0317 47.957C58.0317 47.7349 57.8516 47.5542 57.6289 47.5542L51.9868 47.5542ZM10.478 48.3599L15.314 48.3599L15.314 55.6143L10.478 55.6143L10.478 48.3599ZM52.3896 48.3599L57.2261 48.3599L57.2261 55.6143L52.3896 55.6143L52.3896 48.3599ZM36.6729 55.6143C36.4502 55.6143 36.27 55.7944 36.27 56.0171C36.27 56.2397 36.4502 56.4199 36.6729 56.4199L37.479 56.4199C37.7012 56.4199 37.8818 56.2397 37.8818 56.0171C37.8818 55.7944 37.7012 55.6143 37.479 55.6143L36.6729 55.6143Z" fill="#2B7DE0" fill-opacity="1.000000" fill-rule="nonzero"/>
</svg>
