<svg width="47.542969" height="64.000000" viewBox="0 0 47.543 64" fill="none" xmlns="http://www.w3.org/2000/svg" xmlns:xlink="http://www.w3.org/1999/xlink">
	<desc>
			Created with Pixso.
	</desc>
	<defs/>
	<path id="Vector" d="M5.48584 0C2.46045 0 0 2.46045 0 5.4856L0 58.9714C0 61.7437 2.25537 64 5.02881 64L46.6284 64C47.0737 64 47.4536 63.6799 47.5288 63.241C47.6045 62.8032 47.3525 62.373 46.9321 62.2251C45.7163 61.7944 44.7998 60.396 44.7998 58.9714C44.7998 57.5469 45.7163 56.1484 46.9321 55.7178C46.9414 55.7151 46.9487 55.709 46.957 55.7053C47.002 55.688 47.0391 55.6594 47.0806 55.6357C47.1382 55.6018 47.1943 55.5688 47.2427 55.5249C47.2769 55.4939 47.3022 55.459 47.3306 55.4233C47.3726 55.3711 47.4111 55.3184 47.4409 55.259C47.4614 55.2188 47.4727 55.1777 47.4873 55.134C47.5083 55.0681 47.522 55.0007 47.5283 54.9304C47.5293 54.9038 47.543 54.8835 47.543 54.8572L47.543 8.22852C47.543 3.69092 43.8521 0 39.3145 0L5.48584 0ZM5.48584 1.82861L8.22852 1.82861L8.22852 40.6858C8.22852 40.938 8.43359 41.1428 8.68555 41.1428C8.93799 41.1428 9.14307 40.938 9.14307 40.6858L9.14307 1.82861L39.3145 1.82861C42.8423 1.82861 45.7144 4.70044 45.7144 8.22852L45.7144 53.9429L5.02881 53.9429C3.81445 53.9429 2.69873 54.377 1.82861 55.0964L1.82861 5.4856C1.82861 3.46875 3.46875 1.82861 5.48584 1.82861ZM24.2285 10.0571C23.9761 10.0571 23.7715 10.262 23.7715 10.5144L23.7715 18.2856L21.4858 18.2856C21.2334 18.2856 21.0288 18.4905 21.0288 18.7429C21.0288 18.9951 21.2334 19.2 21.4858 19.2L24.2285 19.2C24.481 19.2 24.6855 18.9951 24.6855 18.7429L24.6855 10.9714L30.1714 10.9714L30.1714 18.7429C30.1714 18.9951 30.3765 19.2 30.6284 19.2L37.4858 19.2L37.4858 24.6858L30.6284 24.6858C30.3765 24.6858 30.1714 24.8906 30.1714 25.1428L30.1714 30.6287C30.1714 30.8809 30.3765 31.0857 30.6284 31.0857C30.8809 31.0857 31.0859 30.8809 31.0859 30.6287L31.0859 25.6001L37.9429 25.6001C38.1953 25.6001 38.3999 25.3953 38.3999 25.1428L38.3999 18.7429C38.3999 18.4905 38.1953 18.2856 37.9429 18.2856L31.0859 18.2856L31.0859 10.5144C31.0859 10.262 30.8809 10.0571 30.6284 10.0571L24.2285 10.0571ZM16.9141 18.2856C16.6621 18.2856 16.457 18.4905 16.457 18.7429L16.457 25.1428C16.457 25.3953 16.6621 25.6001 16.9141 25.6001L23.7715 25.6001L23.7715 45.2571C23.7715 45.5095 23.9761 45.7144 24.2285 45.7144L30.6284 45.7144C30.8809 45.7144 31.0859 45.5095 31.0859 45.2571L31.0859 38.8572C31.0859 38.6047 30.8809 38.3999 30.6284 38.3999C30.3765 38.3999 30.1714 38.6047 30.1714 38.8572L30.1714 44.8L24.6855 44.8L24.6855 25.1428C24.6855 24.8906 24.481 24.6858 24.2285 24.6858L17.3716 24.6858L17.3716 19.2L17.8286 19.2C18.0811 19.2 18.2856 18.9951 18.2856 18.7429C18.2856 18.4905 18.0811 18.2856 17.8286 18.2856L16.9141 18.2856ZM30.6284 32.9143C30.3765 32.9143 30.1714 33.1191 30.1714 33.3713L30.1714 35.2C30.1714 35.4524 30.3765 35.6572 30.6284 35.6572C30.8809 35.6572 31.0859 35.4524 31.0859 35.2L31.0859 33.3713C31.0859 33.1191 30.8809 32.9143 30.6284 32.9143ZM8.68555 42.9714C8.43359 42.9714 8.22852 43.1763 8.22852 43.4285L8.22852 45.2571C8.22852 45.5095 8.43359 45.7144 8.68555 45.7144C8.93799 45.7144 9.14307 45.5095 9.14307 45.2571L9.14307 43.4285C9.14307 43.1763 8.93799 42.9714 8.68555 42.9714ZM8.68555 46.6287C8.43359 46.6287 8.22852 46.8333 8.22852 47.0857L8.22852 48C8.22852 48.2524 8.43359 48.457 8.68555 48.457C8.93799 48.457 9.14307 48.2524 9.14307 48L9.14307 47.0857C9.14307 46.8333 8.93799 46.6287 8.68555 46.6287ZM5.02881 55.7715L44.0195 55.7715C43.6284 56.3145 43.3462 56.9409 43.1694 57.6001L6.85693 57.6001C6.60498 57.6001 6.3999 57.8047 6.3999 58.0571C6.3999 58.3096 6.60498 58.5144 6.85693 58.5144L43.0107 58.5144C42.9971 58.667 42.9712 58.8179 42.9712 58.9714C42.9712 59.125 42.9971 59.2759 43.0107 59.4285L15.0859 59.4285C14.8335 59.4285 14.6284 59.6333 14.6284 59.8857C14.6284 60.1379 14.8335 60.3428 15.0859 60.3428L43.1694 60.3428C43.3462 61.002 43.6284 61.6284 44.0195 62.1714L5.02881 62.1714C3.26416 62.1714 1.82861 60.7361 1.82861 58.9714C1.82861 57.2068 3.26416 55.7715 5.02881 55.7715Z" fill="#2B7DE0" fill-opacity="1.000000" fill-rule="nonzero"/>
</svg>
