<svg width="45.716797" height="66.627441" viewBox="0 0 45.7168 66.6274" fill="none" xmlns="http://www.w3.org/2000/svg" xmlns:xlink="http://www.w3.org/1999/xlink">
	<desc>
			Created with Pixso.
	</desc>
	<defs/>
	<path id="Vector" d="M33.0039 58.0854L27.7788 58.0854C27.3066 58.0854 26.9248 57.7036 26.9248 57.2312C26.9248 56.7588 27.3066 56.377 27.7788 56.377L33.0039 56.377C33.4766 56.377 33.8584 56.7588 33.8584 57.2312C33.8584 57.7036 33.4766 58.0854 33.0039 58.0854Z" fill="#2B7DE0" fill-opacity="1.000000" fill-rule="nonzero"/>
	<path id="Vector" d="M22.4902 39.0205L26.3975 34.6223L22.4902 39.0205Z" fill="#CCAC94" fill-opacity="1.000000" fill-rule="nonzero"/>
	<path id="Vector" d="M22.4897 39.875C22.2881 39.875 22.085 39.804 21.9229 39.6597C21.5698 39.3462 21.5381 38.8064 21.8511 38.4536L25.7578 34.0552C26.0723 33.7007 26.6113 33.6702 26.9644 33.9844C27.3169 34.2979 27.3486 34.8376 27.0356 35.1904L23.1289 39.5879C22.959 39.7776 22.7246 39.875 22.4897 39.875Z" fill="#2B7DE0" fill-opacity="1.000000" fill-rule="nonzero"/>
	<path id="Vector" d="M40.5918 66.6274L13.2573 66.6274C11.0713 66.6274 8.96387 65.0088 8.24414 62.7803C7.47021 60.3826 8.43604 57.9216 10.8281 56.1978L21.7993 49.0559L21.7993 41.0349L20.7026 42.2324C18.9565 44.1467 16.0864 44.5483 13.8784 43.1816C13.5913 43.0193 13.2939 42.8074 13.0234 42.5715L1.84766 32.8679C-0.396973 30.9084 -0.628418 27.4907 1.3291 25.2476C3.28809 23.0054 6.70557 22.7739 8.94873 24.731L16.1489 30.9819L21.0435 23.312C22.813 20.4446 25.8936 18.7925 29.4868 18.7925C34.8618 18.7925 38.978 22.8696 39.7305 28.9377L42.2925 48.6792C42.5146 50.8633 41.7344 53.0476 40.1011 54.8542C39.5801 55.4316 38.9917 55.9407 38.3569 56.3762L40.5918 56.3762C43.418 56.3762 45.7168 58.675 45.7168 61.5015C45.7168 64.3281 43.418 66.6274 40.5918 66.6274ZM22.6533 37.9846C22.7578 37.9846 22.8618 38.0034 22.9629 38.0427C23.2915 38.1709 23.5078 38.4868 23.5078 38.8389L23.5078 49.5188C23.5078 49.8076 23.3618 50.0767 23.1196 50.2346L11.7939 57.6072C10.0405 58.8723 9.32617 60.5754 9.86963 62.2549C10.3677 63.7993 11.7925 64.9192 13.2573 64.9192L40.5918 64.9192C42.4761 64.9192 44.0083 63.3867 44.0083 61.5024C44.0083 59.6179 42.4761 58.0854 40.5918 58.0854L33.0039 58.0854C32.5312 58.0854 32.1494 57.7039 32.1494 57.2314C32.1494 56.759 32.5312 56.3772 33.0039 56.3772C35.1445 56.3772 37.3242 55.3794 38.8335 53.7095C40.1387 52.2659 40.7651 50.5491 40.5952 48.8755L38.0356 29.1531C37.3936 23.9758 33.958 20.501 29.4868 20.501C26.499 20.501 23.9482 21.8564 22.4893 24.2209L17.0557 32.7356C16.9229 32.9448 16.7051 33.0857 16.459 33.1216C16.2144 33.1575 15.9644 33.084 15.7764 32.9209L7.82715 26.019C6.2915 24.6797 3.95508 24.8376 2.61475 26.3708C1.27734 27.9043 1.43506 30.2412 2.96826 31.5798L14.144 41.2834C14.3311 41.4458 14.5342 41.5901 14.7505 41.7131C16.2856 42.6631 18.2466 42.3906 19.4409 41.0801L22.0229 38.2612C22.189 38.0811 22.4194 37.9846 22.6533 37.9846Z" fill="#2B7DE0" fill-opacity="1.000000" fill-rule="nonzero"/>
	<path id="Vector" d="M8.14111 28.8489C8.0415 28.8489 7.94141 28.8137 7.86035 28.7429C7.68262 28.5874 7.66455 28.3174 7.82031 28.1399L9.51904 26.1982C9.6748 26.0205 9.94434 26.0027 10.1216 26.158C10.2988 26.3135 10.3169 26.5835 10.1616 26.7612L8.4624 28.7026C8.37793 28.7993 8.25928 28.8489 8.14111 28.8489Z" fill="#2B7DE0" fill-opacity="1.000000" fill-rule="nonzero"/>
	<path id="Vector" d="M3.86084 33.741C3.76123 33.741 3.66113 33.7061 3.58008 33.6353C3.40234 33.4797 3.38428 33.2097 3.54004 33.032L6.52002 29.6265C6.67627 29.4487 6.94629 29.4309 7.12256 29.5862C7.30029 29.7417 7.31787 30.0117 7.1626 30.1895L4.18213 33.595C4.09766 33.6917 3.97998 33.741 3.86084 33.741Z" fill="#2B7DE0" fill-opacity="1.000000" fill-rule="nonzero"/>
	<path id="Vector" d="M38.4556 65.7729C38.2197 65.7729 38.0283 65.5815 38.0283 65.3459L38.0283 63.7373C38.0283 63.5017 38.2197 63.3103 38.4556 63.3103C38.6914 63.3103 38.8823 63.5017 38.8823 63.7373L38.8823 65.3459C38.8823 65.5815 38.6914 65.7729 38.4556 65.7729Z" fill="#2B7DE0" fill-opacity="1.000000" fill-rule="nonzero"/>
	<path id="Vector" d="M38.4556 62.4197C38.2197 62.4197 38.0283 62.2283 38.0283 61.9924L38.0283 57.6582C38.0283 57.4226 38.2197 57.2312 38.4556 57.2312C38.6914 57.2312 38.8823 57.4226 38.8823 57.6582L38.8823 61.9924C38.8823 62.229 38.6914 62.4197 38.4556 62.4197Z" fill="#2B7DE0" fill-opacity="1.000000" fill-rule="nonzero"/>
	<path id="Vector" d="M21.7988 18.7922C16.6182 18.7922 12.4028 14.5769 12.4028 9.39624C12.4028 4.21558 16.6182 0 21.7988 0C26.9795 0 31.1953 4.21558 31.1953 9.39624C31.1953 14.5769 26.9795 18.7922 21.7988 18.7922ZM21.7988 1.7085C17.5596 1.7085 14.1113 5.15771 14.1113 9.39624C14.1113 13.6348 17.5596 17.084 21.7988 17.084C26.0386 17.084 29.4868 13.6348 29.4868 9.39624C29.4868 5.15771 26.0386 1.7085 21.7988 1.7085Z" fill="#2B7DE0" fill-opacity="1.000000" fill-rule="nonzero"/>
</svg>
