<svg width="52.000000" height="68.774170" viewBox="0 0 52 68.7742" fill="none" xmlns="http://www.w3.org/2000/svg" xmlns:xlink="http://www.w3.org/1999/xlink">
	<desc>
			Created with Pixso.
	</desc>
	<defs/>
	<path id="Vector" d="M27.6772 0C21.5796 0 17.1836 1.51562 14.2222 3.27466C12.7412 4.15405 11.6182 5.09204 10.813 5.93311C10.1255 6.65161 9.77539 7.22632 9.50928 7.76123C4.00977 10.2258 0 16.658 0 23.4839C0 27.6147 0.757812 30.7542 1.70703 33.0652C1.30957 33.3167 0.963867 33.5947 0.687988 33.917C0.260742 34.416 0 35.0405 0 35.686C0 37.4307 0.684082 40.2893 1.35303 42.5547L1.5332 43.1738C1.83398 44.2161 2.14404 45.3232 2.66992 46.3042C3.19629 47.2854 4.00244 48.1763 5.19922 48.5173L5.03223 48.4814L5.03223 52.8386C5.03223 54.0164 5.67334 55.3481 6.71777 56.9766C7.76221 58.6047 9.25586 60.4402 11.1162 62.1792C14.8364 65.657 20.0435 68.7742 26 68.7742C31.9565 68.7742 37.1636 65.657 40.8838 62.1792C42.7441 60.4402 44.2378 58.6047 45.2822 56.9766C46.3267 55.3484 46.9678 54.0164 46.9678 52.8386L46.9678 48.4814L46.7988 48.5173C47.9961 48.1763 48.8022 47.2854 49.3281 46.3042C49.8545 45.3232 50.1646 44.2156 50.4648 43.1738L50.647 42.5547L50.647 42.5515C51.3164 40.2861 52 37.4299 52 35.686C52 34.6936 51.4053 33.8499 50.4932 33.2043C51.3184 31.0916 52 28.3833 52 25.1614C52 19.9226 49.5259 16.5767 48.2456 15.1885C48.896 14.6726 49.4976 14.064 49.9736 13.3474C50.6655 12.3054 51.1611 11.1729 51.1611 10.0645C51.1611 9.60132 50.7856 9.22583 50.3228 9.22583C49.0493 9.22583 47.8833 8.73706 46.5811 7.91382C45.2793 7.09033 43.876 5.94141 42.2158 4.76685C38.8945 2.41797 34.4932 0 27.6772 0ZM27.6772 1.67749C34.104 1.67749 38.0464 3.87231 41.2476 6.13623C42.8481 7.26831 44.25 8.42578 45.6836 9.33228C46.7954 10.0354 47.9795 10.4885 49.2363 10.7034C49.1074 11.2354 48.9873 11.7986 48.5747 12.4202C48.0083 13.2729 47.2275 14.0291 46.5928 14.3464C46.3364 14.4744 46.1636 14.7239 46.1333 15.0085C46.103 15.293 46.2202 15.5732 46.4434 15.752C46.4434 15.752 50.3228 18.801 50.3228 25.1614C50.3228 30.5718 48.6562 33.616 47.4937 35.3569C47.3667 34.0508 47.3062 32.8743 46.7661 29.9233C45.9961 25.7117 44.7852 20.8398 42.6055 17.947C42.3506 17.6082 41.8833 17.5127 41.5161 17.7244C38.4248 19.5056 35.1758 20.9678 28.5161 20.9678C21.7778 20.9678 15.4092 17.9905 13.2881 14.6479C13.0884 14.3335 12.7046 14.189 12.3467 14.2927C11.9893 14.3967 11.7427 14.7241 11.7417 15.0967C11.7417 16.5991 10.1631 19.3696 8.4624 23.1055C6.9624 26.3999 5.51172 30.5901 5.17334 35.696C4.8291 35.2605 4.49365 34.884 4.08691 34.1577C2.89746 32.0332 1.67725 28.6226 1.67725 23.4839C1.67725 17.2812 5.47266 11.3142 10.2773 9.21436C10.3062 9.40967 10.3252 9.57251 10.3774 9.83203C10.5508 10.6887 10.8755 11.8672 11.498 13.1802C11.562 13.3157 11.6938 13.4065 11.8438 13.4185C11.9932 13.4307 12.1377 13.3618 12.2227 13.2383C12.3081 13.1147 12.3208 12.9553 12.2563 12.8198C11.6685 11.5798 11.3604 10.468 11.1982 9.66479C11.1167 9.26318 11.0718 8.94043 11.0459 8.71484C11.0327 8.60205 11.0239 8.51294 11.0181 8.44946C11.0166 8.43384 11.0161 8.42285 11.0146 8.41016C11.1938 8.09766 11.4922 7.65039 12.0254 7.09302C12.7227 6.3645 13.7271 5.51782 15.0771 4.71606C17.7769 3.11255 21.8564 1.67749 27.6772 1.67749ZM27.6772 4.1936C20.5615 4.1936 16.354 6.56738 14.4004 8.28223C14.2881 8.3811 14.2363 8.53271 14.2661 8.67969C14.2954 8.82666 14.4009 8.94702 14.5425 8.99512C14.6846 9.04321 14.8418 9.01196 14.9541 8.91284C16.748 7.33838 20.748 5.03223 27.6772 5.03223C30.4624 5.03223 32.6958 5.56641 34.644 6.38037C34.7832 6.44336 34.9458 6.42578 35.0679 6.33472C35.1904 6.24341 35.2534 6.09277 35.2329 5.94165C35.2124 5.79028 35.1108 5.66235 34.9688 5.60718C32.9297 4.75537 30.5703 4.1936 27.6772 4.1936ZM38.1479 7.35352C37.9619 7.35645 37.7998 7.48218 37.7505 7.66187C37.7012 7.84155 37.7764 8.03223 37.9351 8.12988C38.502 8.49097 39.0542 8.86743 39.5962 9.25049C39.7188 9.33691 39.8784 9.35156 40.0146 9.28882C40.1509 9.22583 40.2437 9.09497 40.2573 8.94556C40.271 8.79614 40.2036 8.65063 40.0811 8.56396C39.5312 8.17529 38.9683 7.79248 38.3872 7.42236C38.3164 7.37573 38.2329 7.35156 38.1479 7.35352ZM41.4868 9.68774C41.3076 9.69751 41.1548 9.81982 41.106 9.99219C41.0571 10.1646 41.123 10.3489 41.2705 10.4512C41.5508 10.6536 41.8325 10.8516 42.1143 11.0491C42.2363 11.1401 42.3989 11.1575 42.5376 11.0945C42.6768 11.0312 42.7705 10.8977 42.7822 10.7456C42.7944 10.5935 42.7227 10.4468 42.5957 10.3625C42.3149 10.1658 42.0366 9.96973 41.7617 9.77124C41.6826 9.71191 41.5854 9.68237 41.4868 9.68774ZM17.1855 14.1597C17.0068 14.1614 16.8491 14.2756 16.792 14.4448C16.7349 14.6138 16.7905 14.8003 16.9316 14.9099C19.3623 16.8611 23.6646 18.4517 28.5161 18.4517C31.623 18.4517 33.9141 18.1011 35.7646 17.554C35.9082 17.5112 36.0186 17.395 36.0532 17.2493C36.0879 17.1035 36.0425 16.9502 35.9336 16.8472C35.8247 16.7441 35.6694 16.7068 35.5254 16.7495C33.7617 17.271 31.5601 17.6128 28.5161 17.6128C23.8501 17.6128 19.6792 16.041 17.4556 14.2563C17.3799 14.1934 17.2842 14.1592 17.1855 14.1597ZM13.1328 16.8823C16.2822 20.2991 22.144 22.6453 28.5161 22.6453C34.9263 22.6453 38.564 21.2363 41.6143 19.564C43.2192 22.074 44.4165 26.3955 45.1167 30.2246C45.8691 34.3401 46.1309 37.8059 46.1309 37.8059C46.1562 38.1409 46.3789 38.4287 46.6973 38.5366C47.0156 38.6448 47.3677 38.5525 47.5918 38.3022C47.5918 38.3022 48.7026 37.0588 49.8081 34.7852C50.1807 35.104 50.3228 35.3987 50.3228 35.686C50.3228 36.9358 49.6821 39.9019 49.0381 42.0796C49.0376 42.0808 49.0371 42.0818 49.0366 42.083L48.855 42.707C48.855 42.7075 48.855 42.708 48.855 42.7087C48.5542 43.7505 48.2524 44.7625 47.8506 45.5115C47.4502 46.2581 47.0117 46.7083 46.3438 46.9006L45.9487 46.9873C45.5645 47.072 45.2905 47.4126 45.2905 47.8064L45.2905 52.8386C45.2905 53.2336 44.8306 54.5752 43.8701 56.0723C42.9097 57.5696 41.4937 59.3118 39.7373 60.9539C36.2236 64.2383 31.3662 67.0967 26 67.0967C20.6338 67.0967 15.7764 64.2383 12.2627 60.9539C10.5059 59.3118 9.09033 57.5696 8.12988 56.0723C7.16943 54.5752 6.70947 53.2336 6.70947 52.8386L6.70947 47.8064C6.70947 47.4121 6.43457 47.0713 6.04932 46.9873L5.65479 46.9006C4.98633 46.7083 4.54834 46.2581 4.14746 45.5115C3.74609 44.7627 3.4458 43.7507 3.14502 42.7087C3.14502 42.708 3.14502 42.7075 3.14502 42.707L2.96191 42.083C2.96191 42.0818 2.96191 42.0808 2.96191 42.0796C2.31885 39.9016 1.67725 36.9358 1.67725 35.686C1.67725 35.4561 1.74316 35.2637 1.9624 35.0078C2.07324 34.8784 2.22852 34.74 2.42773 34.5984C2.49316 34.7227 2.55664 34.8591 2.62256 34.9768C3.94922 37.3452 5.37305 38.4167 5.37305 38.4167C5.62744 38.6047 5.96631 38.6333 6.24902 38.4905C6.53125 38.3479 6.70947 38.0583 6.70947 37.7419C6.70947 31.969 8.33496 27.4346 9.98926 23.8018C11.2515 21.0295 12.5718 18.8501 13.1328 16.8823ZM17.6128 27.6775C13.8159 27.6775 11.8042 28.5964 11.8042 28.5964L12.5186 30.1133C12.5186 30.1133 14.0713 29.3547 17.6128 29.3547C21.1543 29.3547 22.7075 30.1133 22.7075 30.1133L23.4214 28.5964C23.4214 28.5964 21.4102 27.6775 17.6128 27.6775ZM34.3872 27.6775C30.5898 27.6775 28.5781 28.5964 28.5781 28.5964L29.2925 30.1133C29.2925 30.1133 30.8457 29.3547 34.3872 29.3547C37.9287 29.3547 39.4814 30.1133 39.4814 30.1133L40.1958 28.5964C40.1958 28.5964 38.1841 27.6775 34.3872 27.6775ZM16.7744 32.7097C15.6284 32.7097 14.6724 33.7368 14.3677 35.134C14.564 34.6946 15.0039 34.3872 15.5161 34.3872C16.2104 34.3872 16.7744 34.9507 16.7744 35.6453C16.7744 36.3396 16.2104 36.9033 15.5161 36.9033C14.8828 36.9033 14.3633 36.4343 14.2759 35.8254C14.271 35.9058 14.2578 35.9824 14.2578 36.0645C14.2578 37.9172 15.3843 39.4194 16.7744 39.4194C18.1641 39.4194 19.2905 37.9172 19.2905 36.0645C19.2905 34.2119 18.1641 32.7097 16.7744 32.7097ZM35.2256 32.7097C34.0801 32.7097 33.124 33.7368 32.8193 35.134C33.0156 34.6946 33.4551 34.3872 33.9678 34.3872C34.6621 34.3872 35.2256 34.9507 35.2256 35.6453C35.2256 36.3396 34.6621 36.9033 33.9678 36.9033C33.3345 36.9033 32.8149 36.4343 32.7275 35.8254C32.7227 35.9058 32.7095 35.9824 32.7095 36.0645C32.7095 37.9172 33.8359 39.4194 35.2256 39.4194C36.6157 39.4194 37.7417 37.9172 37.7417 36.0645C37.7417 34.2119 36.6157 32.7097 35.2256 32.7097ZM29.7905 49.4675C29.6421 49.4656 29.5039 49.5422 29.4268 49.6689C29.4268 49.6689 28.4644 51.1614 26 51.1614C23.5356 51.1614 22.5732 49.6689 22.5732 49.6689C22.4951 49.5496 22.3618 49.478 22.2192 49.479C22.064 49.4802 21.9219 49.5676 21.8506 49.7056C21.7793 49.8435 21.79 50.0098 21.8784 50.1375C21.8784 50.1375 23.1807 52 26 52C28.8193 52 30.1216 50.1375 30.1216 50.1375C30.2158 50.011 30.231 49.8425 30.1611 49.7012C30.0913 49.5598 29.9482 49.4695 29.7905 49.4675ZM16.3223 55.3564C16.2153 55.365 16.1104 55.4146 16.0352 55.5022C15.8994 55.6624 15.9121 55.8909 16.0454 56.0444L16.0386 56.0493C16.1646 56.1929 19.1787 59.5483 26 59.5483C32.8213 59.5483 35.8364 56.1929 35.9614 56.0493L35.9531 56.0461C36.0889 55.8918 36.1016 55.6616 35.9629 55.5022C35.813 55.3262 35.5479 55.3071 35.3716 55.4548C35.3438 55.479 32.48 57.8708 26 57.8708C19.5537 57.8708 16.6553 55.479 16.627 55.4548C16.5386 55.3806 16.4287 55.3479 16.3223 55.3564Z" fill="#2B7DE0" fill-opacity="1.000000" fill-rule="nonzero"/>
</svg>
